# xmcd
# 
# Track frame offsets:
#     187
#     16795
#     30730
#     51735
#     64937
#     81365
#     95572
#     110432
#     125872
#     140162
# 
# Disc length: 2107
# 
# Revision: 7
# Processed by: cddbd v1.5.2PL0 Copyright (c) Steve Scherf et al.
# Submitted via: fre:ac v1.0.31
# 
DISCID=9608390a
DTITLE=Lorrie Morgan - Something In Red
DYEAR=1991
DGENRE=Country
TTITLE0=Autumn's Not That Cold
TTITLE1=We Both Walk
TTITLE2=Something In Red
TTITLE3=Except For Monday
TTITLE4=A Picture Of Me (Without You)
TTITLE5=Tears On My Pillow
TTITLE6=Best Woman Wins (Duet with Dolly Parton)
TTITLE7=In Tears
TTITLE8=Hand Over Your Heart
TTITLE9=Faithfully
EXTD=
EXTT0=
EXTT1=
EXTT2=
EXTT3=
EXTT4=
EXTT5=
EXTT6=
EXTT7=
EXTT8=
EXTT9=
PLAYORDER=
